<svg xmlns="http://www.w3.org/2000/svg" xmlns:xlink="http://www.w3.org/1999/xlink" width="500" zoomAndPan="magnify" viewBox="0 0 375 374.999991" height="500" preserveAspectRatio="xMidYMid meet" version="1.2"><defs><clipPath id="2f908a1d7f"><path d="M 9 133 L 220 133 L 220 347 L 9 347 Z M 9 133 "/></clipPath><clipPath id="1aba2a5571"><path d="M -34.226562 166.535156 L 115.035156 28.578125 L 321.714844 252.191406 L 172.453125 390.148438 Z M -34.226562 166.535156 "/></clipPath><clipPath id="bb38bb73e4"><path d="M -34.226562 166.535156 L 115.035156 28.578125 L 321.714844 252.191406 L 172.453125 390.148438 Z M -34.226562 166.535156 "/></clipPath><clipPath id="8d9a790fb3"><path d="M 109 38 L 320 38 L 320 252 L 109 252 Z M 109 38 "/></clipPath><clipPath id="15c78d724c"><path d="M 65.632812 71.390625 L 214.890625 -66.566406 L 421.570312 157.050781 L 272.3125 295.003906 Z M 65.632812 71.390625 "/></clipPath><clipPath id="4d2b12e010"><path d="M 65.632812 71.390625 L 214.890625 -66.566406 L 421.570312 157.050781 L 272.3125 295.003906 Z M 65.632812 71.390625 "/></clipPath></defs><g id="d09518a62e"><g clip-rule="nonzero" clip-path="url(#2f908a1d7f)"><g clip-rule="nonzero" clip-path="url(#1aba2a5571)"><g clip-rule="nonzero" clip-path="url(#bb38bb73e4)"><path style=" stroke:none;fill-rule:nonzero;fill:#18cb96;fill-opacity:1;" d="M 219.984375 141.71875 L 38.195312 133.636719 C 3.082031 132.078125 -2.847656 200.476562 38.757812 201.605469 L 151.875 204.667969 L 143.234375 318.492188 C 140.605469 353.152344 208.203125 356.816406 210.132812 321.589844 Z M 219.984375 141.71875 "/></g></g></g><g clip-rule="nonzero" clip-path="url(#8d9a790fb3)"><g clip-rule="nonzero" clip-path="url(#15c78d724c)"><g clip-rule="nonzero" clip-path="url(#4d2b12e010)"><path style=" stroke:none;fill-rule:nonzero;fill:#18cb96;fill-opacity:1;" d="M 319.84375 46.574219 L 138.050781 38.496094 C 102.9375 36.933594 97.007812 105.335938 138.613281 106.460938 L 251.730469 109.527344 L 243.09375 223.351562 C 240.460938 258.011719 308.058594 261.671875 309.988281 226.445312 Z M 319.84375 46.574219 "/></g></g></g></g></svg>