<svg xmlns="http://www.w3.org/2000/svg" xmlns:xlink="http://www.w3.org/1999/xlink" width="500" zoomAndPan="magnify" viewBox="0 0 375 149.999998" height="200" preserveAspectRatio="xMidYMid meet" version="1.2"><defs><clipPath id="c2f587e566"><path d="M 265 27 L 294 27 L 294 56 L 265 56 Z M 265 27 "/></clipPath><clipPath id="ceec34c74f"><path d="M 260.140625 31.863281 L 279.96875 13.535156 L 307.457031 43.277344 L 287.628906 61.601562 Z M 260.140625 31.863281 "/></clipPath><clipPath id="11aa9b161d"><path d="M 260.140625 31.863281 L 279.96875 13.535156 L 307.457031 43.277344 L 287.628906 61.601562 Z M 260.140625 31.863281 "/></clipPath><clipPath id="cf83facc00"><path d="M 280 14 L 309 14 L 309 43 L 280 43 Z M 280 14 "/></clipPath><clipPath id="bc8db87139"><path d="M 274.570312 18.527344 L 294.398438 0.199219 L 321.886719 29.941406 L 302.058594 48.265625 Z M 274.570312 18.527344 "/></clipPath><clipPath id="dea8c295e5"><path d="M 274.570312 18.527344 L 294.398438 0.199219 L 321.886719 29.941406 L 302.058594 48.265625 Z M 274.570312 18.527344 "/></clipPath></defs><g id="ba648e9a64"><g clip-rule="nonzero" clip-path="url(#c2f587e566)"><g clip-rule="nonzero" clip-path="url(#ceec34c74f)"><g clip-rule="nonzero" clip-path="url(#11aa9b161d)"><path style=" stroke:none;fill-rule:nonzero;fill:#18cb96;fill-opacity:1;" d="M 293.863281 28.570312 L 269.75 27.496094 C 265.089844 27.289062 264.304688 36.363281 269.824219 36.515625 L 284.828125 36.921875 L 283.683594 52.019531 C 283.335938 56.617188 292.300781 57.105469 292.558594 52.429688 Z M 293.863281 28.570312 "/></g></g></g><g clip-rule="nonzero" clip-path="url(#cf83facc00)"><g clip-rule="nonzero" clip-path="url(#bc8db87139)"><g clip-rule="nonzero" clip-path="url(#dea8c295e5)"><path style=" stroke:none;fill-rule:nonzero;fill:#18cb96;fill-opacity:1;" d="M 308.292969 15.234375 L 284.175781 14.160156 C 279.519531 13.953125 278.734375 23.027344 284.25 23.179688 L 299.257812 23.585938 L 298.113281 38.683594 C 297.761719 43.28125 306.730469 43.769531 306.984375 39.09375 Z M 308.292969 15.234375 "/></g></g></g><g style="fill:#373643;fill-opacity:1;"><g transform="translate(72.095137, 119.259534)"><path style="stroke:none" d="M 27.265625 -66.859375 C 25.835938 -66.859375 24.53125 -66.378906 23.34375 -65.421875 C 22.164062 -64.472656 21.578125 -63.015625 21.578125 -61.046875 L 21.578125 -59.03125 L 29.390625 -59.03125 C 31.367188 -59.03125 32.8125 -58.4375 33.71875 -57.25 C 34.625 -56.0625 35.078125 -54.796875 35.078125 -53.453125 C 35.078125 -52.035156 34.625 -50.753906 33.71875 -49.609375 C 32.8125 -48.460938 31.367188 -47.890625 29.390625 -47.890625 L 21.578125 -47.890625 L 21.578125 -5.921875 C 21.578125 -3.953125 20.863281 -2.472656 19.4375 -1.484375 C 18.019531 -0.492188 16.476562 0 14.8125 0 C 13.070312 0 11.507812 -0.492188 10.125 -1.484375 C 8.75 -2.472656 8.0625 -3.953125 8.0625 -5.921875 L 8.0625 -47.890625 L 4.984375 -47.890625 C 3.003906 -47.890625 1.5 -48.460938 0.46875 -49.609375 C -0.550781 -50.753906 -1.0625 -52.035156 -1.0625 -53.453125 C -1.0625 -54.796875 -0.550781 -56.0625 0.46875 -57.25 C 1.5 -58.4375 3.003906 -59.03125 4.984375 -59.03125 L 8.0625 -59.03125 L 8.0625 -61.046875 C 8.0625 -64.753906 8.945312 -67.890625 10.71875 -70.453125 C 12.5 -73.023438 14.832031 -74.984375 17.71875 -76.328125 C 20.601562 -77.671875 23.625 -78.34375 26.78125 -78.34375 C 29.070312 -78.34375 31.320312 -78.023438 33.53125 -77.390625 C 35.75 -76.765625 37.769531 -75.660156 39.59375 -74.078125 C 41.09375 -72.734375 41.820312 -71.269531 41.78125 -69.6875 C 41.738281 -68.113281 41.179688 -66.734375 40.109375 -65.546875 C 39.046875 -64.359375 37.722656 -63.644531 36.140625 -63.40625 C 34.566406 -63.175781 32.988281 -63.769531 31.40625 -65.1875 C 30.300781 -66.300781 28.921875 -66.859375 27.265625 -66.859375 Z M 27.265625 -66.859375 "/></g></g><g style="fill:#373643;fill-opacity:1;"><g transform="translate(109.075348, 119.259534)"><path style="stroke:none" d="M 17.65625 -5.921875 C 17.65625 -4.347656 17.003906 -2.96875 15.703125 -1.78125 C 14.398438 -0.59375 12.800781 0 10.90625 0 C 8.925781 0 7.304688 -0.59375 6.046875 -1.78125 C 4.785156 -2.96875 4.15625 -4.347656 4.15625 -5.921875 L 4.15625 -70.765625 C 4.15625 -72.347656 4.785156 -73.726562 6.046875 -74.90625 C 7.304688 -76.09375 8.925781 -76.6875 10.90625 -76.6875 C 12.800781 -76.6875 14.398438 -76.09375 15.703125 -74.90625 C 17.003906 -73.726562 17.65625 -72.347656 17.65625 -70.765625 Z M 17.65625 -5.921875 "/></g></g><g style="fill:#373643;fill-opacity:1;"><g transform="translate(128.513574, 119.259534)"><path style="stroke:none" d="M 58.203125 -60.328125 C 60.253906 -60.328125 61.910156 -59.695312 63.171875 -58.4375 C 64.441406 -57.175781 65.078125 -55.59375 65.078125 -53.6875 L 65.078125 -6.046875 C 65.078125 -4.066406 64.34375 -2.5625 62.875 -1.53125 C 61.414062 -0.507812 59.894531 0 58.3125 0 C 56.570312 0 55.007812 -0.53125 53.625 -1.59375 C 52.25 -2.664062 51.5625 -4.1875 51.5625 -6.15625 L 51.5625 -6.640625 C 48.320312 -3.472656 44.960938 -1.375 41.484375 -0.34375 C 38.003906 0.675781 34.765625 1.1875 31.765625 1.1875 C 23.546875 1.1875 17.144531 -1.398438 12.5625 -6.578125 C 7.976562 -11.753906 5.6875 -18.769531 5.6875 -27.625 L 5.6875 -53.6875 C 5.6875 -55.507812 6.28125 -57.070312 7.46875 -58.375 C 8.65625 -59.675781 10.316406 -60.328125 12.453125 -60.328125 C 14.503906 -60.328125 16.140625 -59.675781 17.359375 -58.375 C 18.585938 -57.070312 19.203125 -55.507812 19.203125 -53.6875 L 19.203125 -27.375 C 19.203125 -22.238281 20.367188 -18.171875 22.703125 -15.171875 C 25.035156 -12.171875 28.726562 -10.671875 33.78125 -10.671875 C 35.28125 -10.671875 37.035156 -11.082031 39.046875 -11.90625 C 41.066406 -12.738281 43.023438 -13.984375 44.921875 -15.640625 C 46.816406 -17.304688 48.394531 -19.421875 49.65625 -21.984375 C 50.925781 -24.554688 51.5625 -27.582031 51.5625 -31.0625 L 51.5625 -53.6875 C 51.5625 -55.59375 52.113281 -57.175781 53.21875 -58.4375 C 54.320312 -59.695312 55.984375 -60.328125 58.203125 -60.328125 Z M 58.203125 -60.328125 "/></g></g><g style="fill:#373643;fill-opacity:1;"><g transform="translate(200.103663, 119.259534)"><path style="stroke:none" d="M 54.765625 -11.265625 C 56.335938 -9.523438 57.066406 -7.785156 56.953125 -6.046875 C 56.835938 -4.304688 56.1875 -2.863281 55 -1.71875 C 53.8125 -0.570312 52.390625 0 50.734375 0 C 48.910156 0 47.128906 -0.867188 45.390625 -2.609375 L 28.453125 -20.984375 L 11.609375 -2.84375 C 9.796875 -0.945312 7.820312 0 5.6875 0 C 4.101562 0 2.71875 -0.53125 1.53125 -1.59375 C 0.351562 -2.664062 -0.269531 -4.007812 -0.34375 -5.625 C -0.425781 -7.25 0.316406 -8.929688 1.890625 -10.671875 L 20.15625 -30.34375 L 2.375 -49.546875 C 0.789062 -51.285156 0.0351562 -52.984375 0.109375 -54.640625 C 0.191406 -56.296875 0.84375 -57.65625 2.0625 -58.71875 C 3.289062 -59.789062 4.738281 -60.328125 6.40625 -60.328125 C 7.425781 -60.328125 8.46875 -60.085938 9.53125 -59.609375 C 10.601562 -59.140625 11.65625 -58.351562 12.6875 -57.25 L 28.6875 -40.0625 L 44.921875 -57.484375 C 45.867188 -58.515625 46.851562 -59.242188 47.875 -59.671875 C 48.90625 -60.109375 49.894531 -60.328125 50.84375 -60.328125 C 52.507812 -60.328125 53.929688 -59.8125 55.109375 -58.78125 C 56.296875 -57.757812 56.925781 -56.4375 57 -54.8125 C 57.082031 -53.195312 56.296875 -51.484375 54.640625 -49.671875 L 36.859375 -30.578125 Z M 54.765625 -11.265625 "/></g></g><g style="fill:#373643;fill-opacity:1;"><g transform="translate(257.233463, 119.259534)"><path style="stroke:none" d="M 17.78125 -69.21875 C 17.78125 -67.25 17.046875 -65.769531 15.578125 -64.78125 C 14.117188 -63.789062 12.5625 -63.296875 10.90625 -63.296875 C 9.164062 -63.296875 7.582031 -63.789062 6.15625 -64.78125 C 4.738281 -65.769531 4.03125 -67.25 4.03125 -69.21875 L 4.03125 -70.765625 C 4.03125 -72.816406 4.738281 -74.316406 6.15625 -75.265625 C 7.582031 -76.210938 9.164062 -76.6875 10.90625 -76.6875 C 12.5625 -76.6875 14.117188 -76.210938 15.578125 -75.265625 C 17.046875 -74.316406 17.78125 -72.816406 17.78125 -70.765625 Z M 4.15625 -54.53125 C 4.15625 -56.425781 4.882812 -57.863281 6.34375 -58.84375 C 7.800781 -59.832031 9.320312 -60.328125 10.90625 -60.328125 C 12.5625 -60.328125 14.097656 -59.832031 15.515625 -58.84375 C 16.941406 -57.863281 17.65625 -56.460938 17.65625 -54.640625 L 17.65625 -5.8125 C 17.65625 -3.832031 16.941406 -2.367188 15.515625 -1.421875 C 14.097656 -0.472656 12.5625 0 10.90625 0 C 9.320312 0 7.800781 -0.472656 6.34375 -1.421875 C 4.882812 -2.367188 4.15625 -3.832031 4.15625 -5.8125 Z M 4.15625 -54.53125 "/></g></g><g style="fill:#373643;fill-opacity:1;"><g transform="translate(79.206643, 138.266984)"><path style="stroke:none" d="M 4.921875 0.15625 C 3.785156 0.15625 2.859375 -0.09375 2.140625 -0.59375 C 1.421875 -1.09375 1.019531 -1.804688 0.9375 -2.734375 L 1.796875 -2.734375 C 1.859375 -2.066406 2.160156 -1.539062 2.703125 -1.15625 C 3.242188 -0.769531 3.984375 -0.578125 4.921875 -0.578125 C 5.691406 -0.578125 6.300781 -0.773438 6.75 -1.171875 C 7.207031 -1.566406 7.4375 -2.050781 7.4375 -2.625 C 7.4375 -3.019531 7.316406 -3.34375 7.078125 -3.59375 C 6.835938 -3.851562 6.535156 -4.050781 6.171875 -4.1875 C 5.804688 -4.320312 5.3125 -4.472656 4.6875 -4.640625 C 3.945312 -4.835938 3.34375 -5.03125 2.875 -5.21875 C 2.414062 -5.414062 2.023438 -5.707031 1.703125 -6.09375 C 1.378906 -6.476562 1.21875 -7 1.21875 -7.65625 C 1.21875 -8.125 1.359375 -8.5625 1.640625 -8.96875 C 1.929688 -9.375 2.332031 -9.691406 2.84375 -9.921875 C 3.351562 -10.160156 3.929688 -10.28125 4.578125 -10.28125 C 5.640625 -10.28125 6.5 -10.015625 7.15625 -9.484375 C 7.8125 -8.960938 8.160156 -8.234375 8.203125 -7.296875 L 7.375 -7.296875 C 7.332031 -7.960938 7.066406 -8.507812 6.578125 -8.9375 C 6.097656 -9.363281 5.425781 -9.578125 4.5625 -9.578125 C 3.84375 -9.578125 3.242188 -9.390625 2.765625 -9.015625 C 2.296875 -8.640625 2.0625 -8.1875 2.0625 -7.65625 C 2.0625 -7.175781 2.191406 -6.789062 2.453125 -6.5 C 2.722656 -6.207031 3.054688 -5.984375 3.453125 -5.828125 C 3.847656 -5.671875 4.367188 -5.503906 5.015625 -5.328125 C 5.722656 -5.140625 6.289062 -4.953125 6.71875 -4.765625 C 7.15625 -4.585938 7.519531 -4.328125 7.8125 -3.984375 C 8.113281 -3.648438 8.265625 -3.195312 8.265625 -2.625 C 8.265625 -2.09375 8.117188 -1.613281 7.828125 -1.1875 C 7.546875 -0.769531 7.148438 -0.441406 6.640625 -0.203125 C 6.128906 0.0351562 5.554688 0.15625 4.921875 0.15625 Z M 4.921875 0.15625 "/></g></g><g style="fill:#373643;fill-opacity:1;"><g transform="translate(87.785683, 138.266984)"><path style="stroke:none" d="M 6 0.15625 C 5.050781 0.15625 4.195312 -0.0546875 3.4375 -0.484375 C 2.675781 -0.910156 2.082031 -1.519531 1.65625 -2.3125 C 1.226562 -3.101562 1.015625 -4.03125 1.015625 -5.09375 C 1.015625 -6.132812 1.226562 -7.050781 1.65625 -7.84375 C 2.09375 -8.632812 2.695312 -9.238281 3.46875 -9.65625 C 4.238281 -10.070312 5.097656 -10.28125 6.046875 -10.28125 C 6.992188 -10.28125 7.847656 -10.070312 8.609375 -9.65625 C 9.367188 -9.238281 9.960938 -8.632812 10.390625 -7.84375 C 10.816406 -7.0625 11.03125 -6.144531 11.03125 -5.09375 C 11.03125 -4.03125 10.8125 -3.101562 10.375 -2.3125 C 9.9375 -1.519531 9.332031 -0.910156 8.5625 -0.484375 C 7.800781 -0.0546875 6.945312 0.15625 6 0.15625 Z M 6 -0.59375 C 6.738281 -0.59375 7.425781 -0.757812 8.0625 -1.09375 C 8.707031 -1.425781 9.222656 -1.925781 9.609375 -2.59375 C 9.992188 -3.269531 10.1875 -4.101562 10.1875 -5.09375 C 10.1875 -6.0625 9.992188 -6.878906 9.609375 -7.546875 C 9.222656 -8.222656 8.710938 -8.726562 8.078125 -9.0625 C 7.441406 -9.394531 6.753906 -9.5625 6.015625 -9.5625 C 5.285156 -9.5625 4.601562 -9.394531 3.96875 -9.0625 C 3.34375 -8.726562 2.835938 -8.222656 2.453125 -7.546875 C 2.066406 -6.878906 1.875 -6.0625 1.875 -5.09375 C 1.875 -4.101562 2.0625 -3.269531 2.4375 -2.59375 C 2.820312 -1.925781 3.328125 -1.425781 3.953125 -1.09375 C 4.585938 -0.757812 5.269531 -0.59375 6 -0.59375 Z M 6 -0.59375 "/></g></g><g style="fill:#373643;fill-opacity:1;"><g transform="translate(99.131046, 138.266984)"><path style="stroke:none" d="M 2.375 -8.0625 C 2.625 -8.8125 3.066406 -9.378906 3.703125 -9.765625 C 4.335938 -10.160156 5.148438 -10.359375 6.140625 -10.359375 L 6.140625 -9.484375 L 5.859375 -9.484375 C 4.859375 -9.484375 4.023438 -9.195312 3.359375 -8.625 C 2.703125 -8.0625 2.375 -7.140625 2.375 -5.859375 L 2.375 0 L 1.53125 0 L 1.53125 -10.15625 L 2.375 -10.15625 Z M 2.375 -8.0625 "/></g></g><g style="fill:#373643;fill-opacity:1;"><g transform="translate(104.96244, 138.266984)"><path style="stroke:none" d="M 2.78125 -9.421875 L 2.78125 -2.71875 C 2.78125 -1.96875 2.914062 -1.453125 3.1875 -1.171875 C 3.46875 -0.890625 3.957031 -0.75 4.65625 -0.75 L 5.796875 -0.75 L 5.796875 0 L 4.53125 0 C 3.644531 0 2.988281 -0.207031 2.5625 -0.625 C 2.144531 -1.039062 1.9375 -1.738281 1.9375 -2.71875 L 1.9375 -9.421875 L 0.40625 -9.421875 L 0.40625 -10.15625 L 1.9375 -10.15625 L 1.9375 -12.734375 L 2.78125 -12.734375 L 2.78125 -10.15625 L 5.796875 -10.15625 L 5.796875 -9.421875 Z M 2.78125 -9.421875 "/></g></g><g style="fill:#373643;fill-opacity:1;"><g transform="translate(110.737769, 138.266984)"><path style="stroke:none" d="M 10.671875 -5.765625 C 10.671875 -5.316406 10.660156 -4.976562 10.640625 -4.75 L 1.875 -4.75 C 1.894531 -3.84375 2.09375 -3.078125 2.46875 -2.453125 C 2.84375 -1.828125 3.332031 -1.359375 3.9375 -1.046875 C 4.550781 -0.734375 5.222656 -0.578125 5.953125 -0.578125 C 6.941406 -0.578125 7.773438 -0.820312 8.453125 -1.3125 C 9.128906 -1.8125 9.550781 -2.484375 9.71875 -3.328125 L 10.609375 -3.328125 C 10.410156 -2.296875 9.898438 -1.457031 9.078125 -0.8125 C 8.253906 -0.164062 7.210938 0.15625 5.953125 0.15625 C 5.003906 0.15625 4.15625 -0.0546875 3.40625 -0.484375 C 2.65625 -0.910156 2.066406 -1.519531 1.640625 -2.3125 C 1.222656 -3.101562 1.015625 -4.03125 1.015625 -5.09375 C 1.015625 -6.144531 1.222656 -7.0625 1.640625 -7.84375 C 2.054688 -8.632812 2.632812 -9.238281 3.375 -9.65625 C 4.125 -10.070312 4.984375 -10.28125 5.953125 -10.28125 C 6.921875 -10.28125 7.765625 -10.070312 8.484375 -9.65625 C 9.203125 -9.238281 9.742188 -8.679688 10.109375 -7.984375 C 10.484375 -7.296875 10.671875 -6.554688 10.671875 -5.765625 Z M 9.84375 -5.4375 C 9.875 -6.34375 9.710938 -7.101562 9.359375 -7.71875 C 9.003906 -8.34375 8.519531 -8.804688 7.90625 -9.109375 C 7.300781 -9.421875 6.640625 -9.578125 5.921875 -9.578125 C 5.210938 -9.578125 4.554688 -9.421875 3.953125 -9.109375 C 3.347656 -8.804688 2.851562 -8.34375 2.46875 -7.71875 C 2.09375 -7.101562 1.894531 -6.34375 1.875 -5.4375 Z M 9.84375 -5.4375 "/></g></g><g style="fill:#373643;fill-opacity:1;"><g transform="translate(121.709311, 138.266984)"><path style="stroke:none" d="M 1.578125 -0.703125 L 7.296875 -0.703125 L 7.296875 0 L 0.640625 0 L 0.640625 -0.703125 L 6.203125 -9.4375 L 0.765625 -9.4375 L 0.765625 -10.15625 L 7.15625 -10.15625 L 7.15625 -9.4375 Z M 1.578125 -0.703125 "/></g></g><g style="fill:#373643;fill-opacity:1;"><g transform="translate(128.923872, 138.266984)"><path style="stroke:none" d=""/></g></g><g style="fill:#373643;fill-opacity:1;"><g transform="translate(133.48425, 138.266984)"><path style="stroke:none" d="M 1.015625 -5.09375 C 1.015625 -6.132812 1.222656 -7.046875 1.640625 -7.828125 C 2.054688 -8.617188 2.632812 -9.222656 3.375 -9.640625 C 4.113281 -10.066406 4.957031 -10.28125 5.90625 -10.28125 C 6.945312 -10.28125 7.847656 -10.019531 8.609375 -9.5 C 9.367188 -8.988281 9.90625 -8.320312 10.21875 -7.5 L 10.21875 -13.84375 L 11.046875 -13.84375 L 11.046875 0 L 10.21875 0 L 10.21875 -2.6875 C 9.914062 -1.851562 9.390625 -1.171875 8.640625 -0.640625 C 7.890625 -0.109375 6.976562 0.15625 5.90625 0.15625 C 4.957031 0.15625 4.113281 -0.0546875 3.375 -0.484375 C 2.632812 -0.921875 2.054688 -1.535156 1.640625 -2.328125 C 1.222656 -3.117188 1.015625 -4.039062 1.015625 -5.09375 Z M 10.21875 -5.09375 C 10.21875 -5.976562 10.03125 -6.757812 9.65625 -7.4375 C 9.289062 -8.113281 8.789062 -8.632812 8.15625 -9 C 7.519531 -9.375 6.804688 -9.5625 6.015625 -9.5625 C 5.191406 -9.5625 4.46875 -9.378906 3.84375 -9.015625 C 3.226562 -8.660156 2.742188 -8.144531 2.390625 -7.46875 C 2.046875 -6.800781 1.875 -6.007812 1.875 -5.09375 C 1.875 -4.164062 2.046875 -3.363281 2.390625 -2.6875 C 2.742188 -2.019531 3.234375 -1.503906 3.859375 -1.140625 C 4.492188 -0.773438 5.210938 -0.59375 6.015625 -0.59375 C 6.804688 -0.59375 7.519531 -0.773438 8.15625 -1.140625 C 8.800781 -1.515625 9.304688 -2.039062 9.671875 -2.71875 C 10.035156 -3.394531 10.21875 -4.1875 10.21875 -5.09375 Z M 10.21875 -5.09375 "/></g></g><g style="fill:#373643;fill-opacity:1;"><g transform="translate(145.352975, 138.266984)"><path style="stroke:none" d="M 10.671875 -5.765625 C 10.671875 -5.316406 10.660156 -4.976562 10.640625 -4.75 L 1.875 -4.75 C 1.894531 -3.84375 2.09375 -3.078125 2.46875 -2.453125 C 2.84375 -1.828125 3.332031 -1.359375 3.9375 -1.046875 C 4.550781 -0.734375 5.222656 -0.578125 5.953125 -0.578125 C 6.941406 -0.578125 7.773438 -0.820312 8.453125 -1.3125 C 9.128906 -1.8125 9.550781 -2.484375 9.71875 -3.328125 L 10.609375 -3.328125 C 10.410156 -2.296875 9.898438 -1.457031 9.078125 -0.8125 C 8.253906 -0.164062 7.210938 0.15625 5.953125 0.15625 C 5.003906 0.15625 4.15625 -0.0546875 3.40625 -0.484375 C 2.65625 -0.910156 2.066406 -1.519531 1.640625 -2.3125 C 1.222656 -3.101562 1.015625 -4.03125 1.015625 -5.09375 C 1.015625 -6.144531 1.222656 -7.0625 1.640625 -7.84375 C 2.054688 -8.632812 2.632812 -9.238281 3.375 -9.65625 C 4.125 -10.070312 4.984375 -10.28125 5.953125 -10.28125 C 6.921875 -10.28125 7.765625 -10.070312 8.484375 -9.65625 C 9.203125 -9.238281 9.742188 -8.679688 10.109375 -7.984375 C 10.484375 -7.296875 10.671875 -6.554688 10.671875 -5.765625 Z M 9.84375 -5.4375 C 9.875 -6.34375 9.710938 -7.101562 9.359375 -7.71875 C 9.003906 -8.34375 8.519531 -8.804688 7.90625 -9.109375 C 7.300781 -9.421875 6.640625 -9.578125 5.921875 -9.578125 C 5.210938 -9.578125 4.554688 -9.421875 3.953125 -9.109375 C 3.347656 -8.804688 2.851562 -8.34375 2.46875 -7.71875 C 2.09375 -7.101562 1.894531 -6.34375 1.875 -5.4375 Z M 9.84375 -5.4375 "/></g></g><g style="fill:#373643;fill-opacity:1;"><g transform="translate(156.324516, 138.266984)"><path style="stroke:none" d=""/></g></g><g style="fill:#373643;fill-opacity:1;"><g transform="translate(160.884895, 138.266984)"><path style="stroke:none" d="M 2.375 -13.84375 L 2.375 0 L 1.53125 0 L 1.53125 -13.84375 Z M 2.375 -13.84375 "/></g></g><g style="fill:#373643;fill-opacity:1;"><g transform="translate(164.099494, 138.266984)"><path style="stroke:none" d="M 1.609375 -13.125 L 2.671875 -13.125 L 1.21875 -9.296875 L 0.578125 -9.296875 Z M 1.609375 -13.125 "/></g></g><g style="fill:#373643;fill-opacity:1;"><g transform="translate(166.603816, 138.266984)"><path style="stroke:none" d="M 6 0.15625 C 5.050781 0.15625 4.195312 -0.0546875 3.4375 -0.484375 C 2.675781 -0.910156 2.082031 -1.519531 1.65625 -2.3125 C 1.226562 -3.101562 1.015625 -4.03125 1.015625 -5.09375 C 1.015625 -6.132812 1.226562 -7.050781 1.65625 -7.84375 C 2.09375 -8.632812 2.695312 -9.238281 3.46875 -9.65625 C 4.238281 -10.070312 5.097656 -10.28125 6.046875 -10.28125 C 6.992188 -10.28125 7.847656 -10.070312 8.609375 -9.65625 C 9.367188 -9.238281 9.960938 -8.632812 10.390625 -7.84375 C 10.816406 -7.0625 11.03125 -6.144531 11.03125 -5.09375 C 11.03125 -4.03125 10.8125 -3.101562 10.375 -2.3125 C 9.9375 -1.519531 9.332031 -0.910156 8.5625 -0.484375 C 7.800781 -0.0546875 6.945312 0.15625 6 0.15625 Z M 6 -0.59375 C 6.738281 -0.59375 7.425781 -0.757812 8.0625 -1.09375 C 8.707031 -1.425781 9.222656 -1.925781 9.609375 -2.59375 C 9.992188 -3.269531 10.1875 -4.101562 10.1875 -5.09375 C 10.1875 -6.0625 9.992188 -6.878906 9.609375 -7.546875 C 9.222656 -8.222656 8.710938 -8.726562 8.078125 -9.0625 C 7.441406 -9.394531 6.753906 -9.5625 6.015625 -9.5625 C 5.285156 -9.5625 4.601562 -9.394531 3.96875 -9.0625 C 3.34375 -8.726562 2.835938 -8.222656 2.453125 -7.546875 C 2.066406 -6.878906 1.875 -6.0625 1.875 -5.09375 C 1.875 -4.101562 2.0625 -3.269531 2.4375 -2.59375 C 2.820312 -1.925781 3.328125 -1.425781 3.953125 -1.09375 C 4.585938 -0.757812 5.269531 -0.59375 6 -0.59375 Z M 6 -0.59375 "/></g></g><g style="fill:#373643;fill-opacity:1;"><g transform="translate(177.949179, 138.266984)"><path style="stroke:none" d="M 2.375 -7.484375 C 2.664062 -8.304688 3.1875 -8.976562 3.9375 -9.5 C 4.6875 -10.019531 5.597656 -10.28125 6.671875 -10.28125 C 7.617188 -10.28125 8.460938 -10.066406 9.203125 -9.640625 C 9.953125 -9.222656 10.535156 -8.617188 10.953125 -7.828125 C 11.367188 -7.046875 11.578125 -6.132812 11.578125 -5.09375 C 11.578125 -4.039062 11.367188 -3.117188 10.953125 -2.328125 C 10.535156 -1.535156 9.953125 -0.921875 9.203125 -0.484375 C 8.460938 -0.0546875 7.617188 0.15625 6.671875 0.15625 C 5.617188 0.15625 4.710938 -0.109375 3.953125 -0.640625 C 3.203125 -1.171875 2.675781 -1.84375 2.375 -2.65625 L 2.375 4.78125 L 1.53125 4.78125 L 1.53125 -10.15625 L 2.375 -10.15625 Z M 10.71875 -5.09375 C 10.71875 -6.007812 10.539062 -6.800781 10.1875 -7.46875 C 9.84375 -8.144531 9.351562 -8.660156 8.71875 -9.015625 C 8.09375 -9.378906 7.367188 -9.5625 6.546875 -9.5625 C 5.765625 -9.5625 5.050781 -9.375 4.40625 -9 C 3.769531 -8.632812 3.269531 -8.113281 2.90625 -7.4375 C 2.550781 -6.757812 2.375 -5.976562 2.375 -5.09375 C 2.375 -4.1875 2.550781 -3.394531 2.90625 -2.71875 C 3.269531 -2.039062 3.769531 -1.515625 4.40625 -1.140625 C 5.050781 -0.773438 5.765625 -0.59375 6.546875 -0.59375 C 7.367188 -0.59375 8.09375 -0.773438 8.71875 -1.140625 C 9.351562 -1.503906 9.84375 -2.019531 10.1875 -2.6875 C 10.539062 -3.363281 10.71875 -4.164062 10.71875 -5.09375 Z M 10.71875 -5.09375 "/></g></g><g style="fill:#373643;fill-opacity:1;"><g transform="translate(189.817903, 138.266984)"><path style="stroke:none" d="M 10.671875 -5.765625 C 10.671875 -5.316406 10.660156 -4.976562 10.640625 -4.75 L 1.875 -4.75 C 1.894531 -3.84375 2.09375 -3.078125 2.46875 -2.453125 C 2.84375 -1.828125 3.332031 -1.359375 3.9375 -1.046875 C 4.550781 -0.734375 5.222656 -0.578125 5.953125 -0.578125 C 6.941406 -0.578125 7.773438 -0.820312 8.453125 -1.3125 C 9.128906 -1.8125 9.550781 -2.484375 9.71875 -3.328125 L 10.609375 -3.328125 C 10.410156 -2.296875 9.898438 -1.457031 9.078125 -0.8125 C 8.253906 -0.164062 7.210938 0.15625 5.953125 0.15625 C 5.003906 0.15625 4.15625 -0.0546875 3.40625 -0.484375 C 2.65625 -0.910156 2.066406 -1.519531 1.640625 -2.3125 C 1.222656 -3.101562 1.015625 -4.03125 1.015625 -5.09375 C 1.015625 -6.144531 1.222656 -7.0625 1.640625 -7.84375 C 2.054688 -8.632812 2.632812 -9.238281 3.375 -9.65625 C 4.125 -10.070312 4.984375 -10.28125 5.953125 -10.28125 C 6.921875 -10.28125 7.765625 -10.070312 8.484375 -9.65625 C 9.203125 -9.238281 9.742188 -8.679688 10.109375 -7.984375 C 10.484375 -7.296875 10.671875 -6.554688 10.671875 -5.765625 Z M 9.84375 -5.4375 C 9.875 -6.34375 9.710938 -7.101562 9.359375 -7.71875 C 9.003906 -8.34375 8.519531 -8.804688 7.90625 -9.109375 C 7.300781 -9.421875 6.640625 -9.578125 5.921875 -9.578125 C 5.210938 -9.578125 4.554688 -9.421875 3.953125 -9.109375 C 3.347656 -8.804688 2.851562 -8.34375 2.46875 -7.71875 C 2.09375 -7.101562 1.894531 -6.34375 1.875 -5.4375 Z M 7.46875 -13.296875 L 3.796875 -10.984375 L 3.796875 -11.671875 L 7.46875 -14.125 Z M 7.46875 -13.296875 "/></g></g><g style="fill:#373643;fill-opacity:1;"><g transform="translate(200.789445, 138.266984)"><path style="stroke:none" d="M 2.375 -8.0625 C 2.625 -8.8125 3.066406 -9.378906 3.703125 -9.765625 C 4.335938 -10.160156 5.148438 -10.359375 6.140625 -10.359375 L 6.140625 -9.484375 L 5.859375 -9.484375 C 4.859375 -9.484375 4.023438 -9.195312 3.359375 -8.625 C 2.703125 -8.0625 2.375 -7.140625 2.375 -5.859375 L 2.375 0 L 1.53125 0 L 1.53125 -10.15625 L 2.375 -10.15625 Z M 2.375 -8.0625 "/></g></g><g style="fill:#373643;fill-opacity:1;"><g transform="translate(206.620839, 138.266984)"><path style="stroke:none" d="M 1.015625 -5.09375 C 1.015625 -6.132812 1.222656 -7.046875 1.640625 -7.828125 C 2.054688 -8.617188 2.632812 -9.222656 3.375 -9.640625 C 4.113281 -10.066406 4.957031 -10.28125 5.90625 -10.28125 C 6.976562 -10.28125 7.890625 -10.019531 8.640625 -9.5 C 9.390625 -8.976562 9.914062 -8.3125 10.21875 -7.5 L 10.21875 -10.15625 L 11.046875 -10.15625 L 11.046875 0 L 10.21875 0 L 10.21875 -2.671875 C 9.914062 -1.847656 9.382812 -1.171875 8.625 -0.640625 C 7.875 -0.109375 6.96875 0.15625 5.90625 0.15625 C 4.957031 0.15625 4.113281 -0.0546875 3.375 -0.484375 C 2.632812 -0.921875 2.054688 -1.535156 1.640625 -2.328125 C 1.222656 -3.117188 1.015625 -4.039062 1.015625 -5.09375 Z M 10.21875 -5.09375 C 10.21875 -5.976562 10.03125 -6.757812 9.65625 -7.4375 C 9.289062 -8.113281 8.789062 -8.632812 8.15625 -9 C 7.519531 -9.375 6.804688 -9.5625 6.015625 -9.5625 C 5.191406 -9.5625 4.46875 -9.378906 3.84375 -9.015625 C 3.226562 -8.660156 2.742188 -8.144531 2.390625 -7.46875 C 2.046875 -6.800781 1.875 -6.007812 1.875 -5.09375 C 1.875 -4.164062 2.046875 -3.363281 2.390625 -2.6875 C 2.742188 -2.019531 3.234375 -1.503906 3.859375 -1.140625 C 4.492188 -0.773438 5.210938 -0.59375 6.015625 -0.59375 C 6.804688 -0.59375 7.519531 -0.773438 8.15625 -1.140625 C 8.800781 -1.515625 9.304688 -2.039062 9.671875 -2.71875 C 10.035156 -3.394531 10.21875 -4.1875 10.21875 -5.09375 Z M 10.21875 -5.09375 "/></g></g><g style="fill:#373643;fill-opacity:1;"><g transform="translate(218.489563, 138.266984)"><path style="stroke:none" d="M 2.78125 -9.421875 L 2.78125 -2.71875 C 2.78125 -1.96875 2.914062 -1.453125 3.1875 -1.171875 C 3.46875 -0.890625 3.957031 -0.75 4.65625 -0.75 L 5.796875 -0.75 L 5.796875 0 L 4.53125 0 C 3.644531 0 2.988281 -0.207031 2.5625 -0.625 C 2.144531 -1.039062 1.9375 -1.738281 1.9375 -2.71875 L 1.9375 -9.421875 L 0.40625 -9.421875 L 0.40625 -10.15625 L 1.9375 -10.15625 L 1.9375 -12.734375 L 2.78125 -12.734375 L 2.78125 -10.15625 L 5.796875 -10.15625 L 5.796875 -9.421875 Z M 2.78125 -9.421875 "/></g></g><g style="fill:#373643;fill-opacity:1;"><g transform="translate(224.264892, 138.266984)"><path style="stroke:none" d="M 1.96875 -12.421875 C 1.769531 -12.421875 1.597656 -12.484375 1.453125 -12.609375 C 1.316406 -12.742188 1.25 -12.921875 1.25 -13.140625 C 1.25 -13.359375 1.316406 -13.535156 1.453125 -13.671875 C 1.597656 -13.804688 1.769531 -13.875 1.96875 -13.875 C 2.164062 -13.875 2.332031 -13.804688 2.46875 -13.671875 C 2.601562 -13.535156 2.671875 -13.359375 2.671875 -13.140625 C 2.671875 -12.921875 2.601562 -12.742188 2.46875 -12.609375 C 2.332031 -12.484375 2.164062 -12.421875 1.96875 -12.421875 Z M 2.375 -10.15625 L 2.375 0 L 1.53125 0 L 1.53125 -10.15625 Z M 2.375 -10.15625 "/></g></g><g style="fill:#373643;fill-opacity:1;"><g transform="translate(227.479492, 138.266984)"><path style="stroke:none" d="M 6 0.15625 C 5.050781 0.15625 4.195312 -0.0546875 3.4375 -0.484375 C 2.675781 -0.910156 2.082031 -1.519531 1.65625 -2.3125 C 1.226562 -3.101562 1.015625 -4.03125 1.015625 -5.09375 C 1.015625 -6.132812 1.226562 -7.050781 1.65625 -7.84375 C 2.09375 -8.632812 2.695312 -9.238281 3.46875 -9.65625 C 4.238281 -10.070312 5.097656 -10.28125 6.046875 -10.28125 C 6.992188 -10.28125 7.847656 -10.070312 8.609375 -9.65625 C 9.367188 -9.238281 9.960938 -8.632812 10.390625 -7.84375 C 10.816406 -7.0625 11.03125 -6.144531 11.03125 -5.09375 C 11.03125 -4.03125 10.8125 -3.101562 10.375 -2.3125 C 9.9375 -1.519531 9.332031 -0.910156 8.5625 -0.484375 C 7.800781 -0.0546875 6.945312 0.15625 6 0.15625 Z M 6 -0.59375 C 6.738281 -0.59375 7.425781 -0.757812 8.0625 -1.09375 C 8.707031 -1.425781 9.222656 -1.925781 9.609375 -2.59375 C 9.992188 -3.269531 10.1875 -4.101562 10.1875 -5.09375 C 10.1875 -6.0625 9.992188 -6.878906 9.609375 -7.546875 C 9.222656 -8.222656 8.710938 -8.726562 8.078125 -9.0625 C 7.441406 -9.394531 6.753906 -9.5625 6.015625 -9.5625 C 5.285156 -9.5625 4.601562 -9.394531 3.96875 -9.0625 C 3.34375 -8.726562 2.835938 -8.222656 2.453125 -7.546875 C 2.066406 -6.878906 1.875 -6.0625 1.875 -5.09375 C 1.875 -4.101562 2.0625 -3.269531 2.4375 -2.59375 C 2.820312 -1.925781 3.328125 -1.425781 3.953125 -1.09375 C 4.585938 -0.757812 5.269531 -0.59375 6 -0.59375 Z M 6 -0.59375 "/></g></g><g style="fill:#373643;fill-opacity:1;"><g transform="translate(238.824855, 138.266984)"><path style="stroke:none" d="M 6.109375 -10.359375 C 7.328125 -10.359375 8.316406 -9.988281 9.078125 -9.25 C 9.835938 -8.507812 10.21875 -7.410156 10.21875 -5.953125 L 10.21875 0 L 9.390625 0 L 9.390625 -5.890625 C 9.390625 -7.097656 9.082031 -8.019531 8.46875 -8.65625 C 7.863281 -9.300781 7.035156 -9.625 5.984375 -9.625 C 4.890625 -9.625 4.015625 -9.273438 3.359375 -8.578125 C 2.703125 -7.878906 2.375 -6.847656 2.375 -5.484375 L 2.375 0 L 1.53125 0 L 1.53125 -10.15625 L 2.375 -10.15625 L 2.375 -8 C 2.664062 -8.757812 3.144531 -9.34375 3.8125 -9.75 C 4.476562 -10.15625 5.242188 -10.359375 6.109375 -10.359375 Z M 6.109375 -10.359375 "/></g></g><g style="fill:#373643;fill-opacity:1;"><g transform="translate(249.759009, 138.266984)"><path style="stroke:none" d="M 6.109375 -10.359375 C 7.328125 -10.359375 8.316406 -9.988281 9.078125 -9.25 C 9.835938 -8.507812 10.21875 -7.410156 10.21875 -5.953125 L 10.21875 0 L 9.390625 0 L 9.390625 -5.890625 C 9.390625 -7.097656 9.082031 -8.019531 8.46875 -8.65625 C 7.863281 -9.300781 7.035156 -9.625 5.984375 -9.625 C 4.890625 -9.625 4.015625 -9.273438 3.359375 -8.578125 C 2.703125 -7.878906 2.375 -6.847656 2.375 -5.484375 L 2.375 0 L 1.53125 0 L 1.53125 -10.15625 L 2.375 -10.15625 L 2.375 -8 C 2.664062 -8.757812 3.144531 -9.34375 3.8125 -9.75 C 4.476562 -10.15625 5.242188 -10.359375 6.109375 -10.359375 Z M 6.109375 -10.359375 "/></g></g><g style="fill:#373643;fill-opacity:1;"><g transform="translate(260.693163, 138.266984)"><path style="stroke:none" d="M 10.671875 -5.765625 C 10.671875 -5.316406 10.660156 -4.976562 10.640625 -4.75 L 1.875 -4.75 C 1.894531 -3.84375 2.09375 -3.078125 2.46875 -2.453125 C 2.84375 -1.828125 3.332031 -1.359375 3.9375 -1.046875 C 4.550781 -0.734375 5.222656 -0.578125 5.953125 -0.578125 C 6.941406 -0.578125 7.773438 -0.820312 8.453125 -1.3125 C 9.128906 -1.8125 9.550781 -2.484375 9.71875 -3.328125 L 10.609375 -3.328125 C 10.410156 -2.296875 9.898438 -1.457031 9.078125 -0.8125 C 8.253906 -0.164062 7.210938 0.15625 5.953125 0.15625 C 5.003906 0.15625 4.15625 -0.0546875 3.40625 -0.484375 C 2.65625 -0.910156 2.066406 -1.519531 1.640625 -2.3125 C 1.222656 -3.101562 1.015625 -4.03125 1.015625 -5.09375 C 1.015625 -6.144531 1.222656 -7.0625 1.640625 -7.84375 C 2.054688 -8.632812 2.632812 -9.238281 3.375 -9.65625 C 4.125 -10.070312 4.984375 -10.28125 5.953125 -10.28125 C 6.921875 -10.28125 7.765625 -10.070312 8.484375 -9.65625 C 9.203125 -9.238281 9.742188 -8.679688 10.109375 -7.984375 C 10.484375 -7.296875 10.671875 -6.554688 10.671875 -5.765625 Z M 9.84375 -5.4375 C 9.875 -6.34375 9.710938 -7.101562 9.359375 -7.71875 C 9.003906 -8.34375 8.519531 -8.804688 7.90625 -9.109375 C 7.300781 -9.421875 6.640625 -9.578125 5.921875 -9.578125 C 5.210938 -9.578125 4.554688 -9.421875 3.953125 -9.109375 C 3.347656 -8.804688 2.851562 -8.34375 2.46875 -7.71875 C 2.09375 -7.101562 1.894531 -6.34375 1.875 -5.4375 Z M 9.84375 -5.4375 "/></g></g><g style="fill:#373643;fill-opacity:1;"><g transform="translate(271.664716, 138.266984)"><path style="stroke:none" d="M 2.375 -13.84375 L 2.375 0 L 1.53125 0 L 1.53125 -13.84375 Z M 2.375 -13.84375 "/></g></g></g></svg>